<?xml version="1.0" encoding="UTF-8"?>
<svg id="Layer_1" data-name="Layer 1" xmlns="http://www.w3.org/2000/svg" version="1.1" viewBox="0 0 941.9 146.3">
  <defs>
    <style>
      .cls-1 {
        fill: #000;
        stroke-width: 0px;
      }
    </style>
  </defs>
  <g>
    <path class="cls-1" d="M145.8,2.2h96.4v20.5h-74.4v37.1h66.3v20.3h-66.3v43.6h76.4v20.5h-98.5V2.2Z"/>
    <path class="cls-1" d="M265.7,2.2h66.5c31.2,0,45,17.8,45,38.7s-10.9,36.5-35.3,39.5l39.7,63.6-25.9-.2-37.9-62.4h-30v62.6h-22.1V2.2ZM332.4,61.2c15.8,0,21.7-8.9,21.7-20.1s-7.9-18.6-21.7-18.6h-44.6v38.7h44.6Z"/>
    <path class="cls-1" d="M400.9,2.2h22.1v141.8h-22.1V2.2Z"/>
    <path class="cls-1" d="M442.1,103.3l21.5-5.3c5.3,21.3,18.8,29.2,36.1,29.2s29-7.7,29-21.9-12.8-20.1-28.6-23.5l-18.6-4.1c-20.3-4.7-32.8-16.4-32.8-37.7S469,0,497.4,0s43.8,12.2,50.9,38.7l-20.5,3.8c-4.3-15.8-16.6-23.7-31.2-23.7s-26.9,8.9-26.9,19.2,7.7,16.8,21.7,19.9l17.4,3.8c24.5,5.5,41.7,16.8,41.7,41.5s-24.7,43-51.9,43-50-13-56.5-43Z"/>
    <path class="cls-1" d="M703,2.2h66.5c31.2,0,45,17.8,45,38.7s-10.9,36.5-35.3,39.5l39.7,63.6-25.9-.2-37.9-62.4h-30v62.6h-22.1V2.2ZM769.7,61.2c15.8,0,21.7-8.9,21.7-20.1s-7.9-18.6-21.7-18.6h-44.6v38.7h44.6Z"/>
    <path class="cls-1" d="M873,22.7h-46.6V2.2h115.5v20.5h-46.6v121.4h-22.3V22.7Z"/>
  </g>
  <g>
    <polygon class="cls-1" points="108 2.2 66.5 119.3 65.4 119.3 49 74 26.7 74 52.9 144.3 78 144.3 130.9 2.2 108 2.2"/>
    <polygon class="cls-1" points="43.1 57.5 23.1 2.2 0 2.2 20.6 57.5 43.1 57.5"/>
  </g>
  <polygon class="cls-1" points="667.4 88.7 644.4 88.7 619 88.7 598.4 88.7 620.7 25.9 621.7 25.9 638.5 72.3 661.2 72.3 635.1 2 608.9 2 555.9 144.1 579 144.1 591.3 109.2 651.9 109.2 664.7 144.1 688 144.1 667.4 88.7"/>
</svg>